<mxfile host="app.diagrams.net" agent="Mozilla/5.0 (Windows NT 10.0; Win64; x64) AppleWebKit/537.36 (KHTML, like Gecko) Chrome/129.0.0.0 Safari/537.36" version="24.7.17">
  <diagram name="Página-1" id="W4VLH-XT-gX-NeUZsmNU">
    <mxGraphModel dx="839" dy="462" grid="1" gridSize="10" guides="1" tooltips="1" connect="1" arrows="1" fold="1" page="1" pageScale="1" pageWidth="827" pageHeight="1169" math="0" shadow="0">
      <root>
        <mxCell id="0" />
        <mxCell id="1" parent="0" />
        <mxCell id="zty_Or9rcsFE8TFB_bo--1" value="Leer Limite" style="shape=parallelogram;perimeter=parallelogramPerimeter;whiteSpace=wrap;html=1;fixedSize=1;" vertex="1" parent="1">
          <mxGeometry x="270" y="80" width="290" height="50" as="geometry" />
        </mxCell>
        <mxCell id="zty_Or9rcsFE8TFB_bo--2" value="num1 = aleatorio(1,Limite) quiero incluir Limite&lt;div&gt;num2 = aleatorio(1,Limite) quiero incluir Limite&lt;br&gt;&lt;/div&gt;&lt;div&gt;suma_ok = num1 + num2&lt;/div&gt;" style="rounded=0;whiteSpace=wrap;html=1;" vertex="1" parent="1">
          <mxGeometry x="260" y="160" width="310" height="60" as="geometry" />
        </mxCell>
        <mxCell id="zty_Or9rcsFE8TFB_bo--3" value="Leer calculo_usuario" style="shape=parallelogram;perimeter=parallelogramPerimeter;whiteSpace=wrap;html=1;fixedSize=1;" vertex="1" parent="1">
          <mxGeometry x="340" y="240" width="170" height="50" as="geometry" />
        </mxCell>
        <mxCell id="zty_Or9rcsFE8TFB_bo--4" value="calculo_usuario == suma_ok" style="rhombus;whiteSpace=wrap;html=1;" vertex="1" parent="1">
          <mxGeometry x="345" y="310" width="140" height="80" as="geometry" />
        </mxCell>
        <mxCell id="zty_Or9rcsFE8TFB_bo--5" value="" style="endArrow=none;html=1;rounded=0;" edge="1" parent="1" source="zty_Or9rcsFE8TFB_bo--2">
          <mxGeometry width="50" height="50" relative="1" as="geometry">
            <mxPoint x="380" y="180" as="sourcePoint" />
            <mxPoint x="430" y="130" as="targetPoint" />
          </mxGeometry>
        </mxCell>
        <mxCell id="zty_Or9rcsFE8TFB_bo--6" value="" style="endArrow=none;html=1;rounded=0;entryX=0.611;entryY=0.984;entryDx=0;entryDy=0;entryPerimeter=0;" edge="1" parent="1" source="zty_Or9rcsFE8TFB_bo--3" target="zty_Or9rcsFE8TFB_bo--2">
          <mxGeometry width="50" height="50" relative="1" as="geometry">
            <mxPoint x="433" y="170" as="sourcePoint" />
            <mxPoint x="440" y="140" as="targetPoint" />
          </mxGeometry>
        </mxCell>
        <mxCell id="zty_Or9rcsFE8TFB_bo--7" value="" style="endArrow=none;html=1;rounded=0;entryX=0.458;entryY=0.975;entryDx=0;entryDy=0;entryPerimeter=0;" edge="1" parent="1" source="zty_Or9rcsFE8TFB_bo--4" target="zty_Or9rcsFE8TFB_bo--3">
          <mxGeometry width="50" height="50" relative="1" as="geometry">
            <mxPoint x="280" y="360" as="sourcePoint" />
            <mxPoint x="330" y="310" as="targetPoint" />
          </mxGeometry>
        </mxCell>
        <mxCell id="zty_Or9rcsFE8TFB_bo--8" value="aciertos = aciertos + 1" style="rounded=0;whiteSpace=wrap;html=1;" vertex="1" parent="1">
          <mxGeometry x="520" y="390" width="130" height="50" as="geometry" />
        </mxCell>
        <mxCell id="zty_Or9rcsFE8TFB_bo--9" value="" style="endArrow=classic;html=1;rounded=0;entryX=0.37;entryY=0.023;entryDx=0;entryDy=0;entryPerimeter=0;exitX=1;exitY=0.5;exitDx=0;exitDy=0;" edge="1" parent="1" source="zty_Or9rcsFE8TFB_bo--4" target="zty_Or9rcsFE8TFB_bo--8">
          <mxGeometry width="50" height="50" relative="1" as="geometry">
            <mxPoint x="490" y="350" as="sourcePoint" />
            <mxPoint x="550" y="280" as="targetPoint" />
            <Array as="points">
              <mxPoint x="568" y="350" />
            </Array>
          </mxGeometry>
        </mxCell>
        <mxCell id="zty_Or9rcsFE8TFB_bo--10" value="Sí" style="text;html=1;align=center;verticalAlign=middle;whiteSpace=wrap;rounded=0;" vertex="1" parent="1">
          <mxGeometry x="500" y="330" width="45" height="20" as="geometry" />
        </mxCell>
        <mxCell id="zty_Or9rcsFE8TFB_bo--11" value="Leer continuar" style="shape=parallelogram;perimeter=parallelogramPerimeter;whiteSpace=wrap;html=1;fixedSize=1;" vertex="1" parent="1">
          <mxGeometry x="355" y="460" width="120" height="60" as="geometry" />
        </mxCell>
        <mxCell id="zty_Or9rcsFE8TFB_bo--12" value="" style="endArrow=classic;html=1;rounded=0;exitX=0.315;exitY=1.053;exitDx=0;exitDy=0;exitPerimeter=0;entryX=1;entryY=0.5;entryDx=0;entryDy=0;" edge="1" parent="1" source="zty_Or9rcsFE8TFB_bo--8" target="zty_Or9rcsFE8TFB_bo--11">
          <mxGeometry width="50" height="50" relative="1" as="geometry">
            <mxPoint x="470" y="450" as="sourcePoint" />
            <mxPoint x="520" y="400" as="targetPoint" />
          </mxGeometry>
        </mxCell>
        <mxCell id="zty_Or9rcsFE8TFB_bo--13" value="continuar != &#39;n&#39;" style="rhombus;whiteSpace=wrap;html=1;" vertex="1" parent="1">
          <mxGeometry x="360" y="530" width="95" height="80" as="geometry" />
        </mxCell>
        <mxCell id="zty_Or9rcsFE8TFB_bo--14" value="" style="endArrow=classic;html=1;rounded=0;" edge="1" parent="1">
          <mxGeometry width="50" height="50" relative="1" as="geometry">
            <mxPoint x="460" y="570" as="sourcePoint" />
            <mxPoint x="425" y="140" as="targetPoint" />
            <Array as="points">
              <mxPoint x="745" y="570" />
              <mxPoint x="710" y="140" />
            </Array>
          </mxGeometry>
        </mxCell>
        <mxCell id="zty_Or9rcsFE8TFB_bo--15" value="Sí" style="text;html=1;align=center;verticalAlign=middle;whiteSpace=wrap;rounded=0;" vertex="1" parent="1">
          <mxGeometry x="510" y="550" width="45" height="20" as="geometry" />
        </mxCell>
        <mxCell id="zty_Or9rcsFE8TFB_bo--16" value="Mostrar Aciertos" style="shape=parallelogram;perimeter=parallelogramPerimeter;whiteSpace=wrap;html=1;fixedSize=1;" vertex="1" parent="1">
          <mxGeometry x="190" y="620" width="120" height="60" as="geometry" />
        </mxCell>
        <mxCell id="zty_Or9rcsFE8TFB_bo--17" value="" style="endArrow=classic;html=1;rounded=0;exitX=0;exitY=0.5;exitDx=0;exitDy=0;entryX=0.5;entryY=0;entryDx=0;entryDy=0;" edge="1" parent="1" source="zty_Or9rcsFE8TFB_bo--13" target="zty_Or9rcsFE8TFB_bo--16">
          <mxGeometry width="50" height="50" relative="1" as="geometry">
            <mxPoint x="250" y="550" as="sourcePoint" />
            <mxPoint x="300" y="500" as="targetPoint" />
            <Array as="points">
              <mxPoint x="250" y="580" />
            </Array>
          </mxGeometry>
        </mxCell>
        <mxCell id="zty_Or9rcsFE8TFB_bo--18" value="No" style="text;html=1;align=center;verticalAlign=middle;whiteSpace=wrap;rounded=0;" vertex="1" parent="1">
          <mxGeometry x="260" y="550" width="45" height="20" as="geometry" />
        </mxCell>
        <mxCell id="zty_Or9rcsFE8TFB_bo--19" value="" style="endArrow=none;html=1;rounded=0;entryX=0.5;entryY=1;entryDx=0;entryDy=0;" edge="1" parent="1" source="zty_Or9rcsFE8TFB_bo--13" target="zty_Or9rcsFE8TFB_bo--11">
          <mxGeometry width="50" height="50" relative="1" as="geometry">
            <mxPoint x="270" y="510" as="sourcePoint" />
            <mxPoint x="320" y="460" as="targetPoint" />
          </mxGeometry>
        </mxCell>
      </root>
    </mxGraphModel>
  </diagram>
</mxfile>
